<svg version="1.2" xmlns="http://www.w3.org/2000/svg" viewBox="0 0 360 360" width="360" height="360"><style>.A{fill:#ff7e2c}</style><circle class="A" cx="180" cy="180" r="179.8"/><path  d="m177.4 72.2c8.3-2.3 15.7 1.4 21.3 12 0 0 71.9 122.2 71.9 122.2 7.9 12.5 10.6 28.2 7.9 47.5-2.3 17.6-8.8 28.6-19.4 33.3-10.2 4.6-19.4 0-27.2-13.4 0 0-51.7-90.9-51.7-90.9 0 0-51.7 90.9-51.7 90.9-6.9 13.4-16.1 18-27.2 13.4-10.1-4.7-16.6-15.7-19.3-33.3-2.4-19.3 0-35 7.8-47.5 0 0 71-122.2 71-122.2 4.6-7.9 10.2-12 16.6-12z"/></svg>