<svg xmlns="http://www.w3.org/2000/svg" version="1.2" viewBox="0 1 1842 499"><style>.A{fill:#ff7e2c}</style><rect class="A" y="1" width="1842" height="499" rx="47"/><path d="m205.1 183.4c0 0 0 0 0 0 18.9 0 36.4 5.1 51.6 14.8 0 0 0 0 0 0 7.9 5.5 12 12.9 12 22.1 0 0 0 0 0 0-1.4 9.7-6 17.1-14.7 21.2 0 0 0 0 0 0-8.8 3.7-16.6 2.8-24-2.7 0 0 0 0 0 0-6.9-3.7-15.2-5.6-24.9-5.6 0 0 0 0 0 0-7.9 0-15.7 2.4-23.1 6.5 0 0 0 0 0 0-13.4 9.2-20.3 26.8-20.3 52.6 0 0 0 0 0 0 0 0 0 0.9 0 0.9 0 27.7 6.5 45.7 19.4 54.4 0 0 0 0 0 0 6.9 4.2 14.7 6.5 24 6.5 0 0 0 0 0 0 9.7 0 18-2.3 24.9-6.5 0 0 0 0 0 0 7.4-6 15.2-6.9 24-2.7 8.7 4.1 13.3 11.5 14.7 21.2 0 0 0 0 0 0 0 9.7-4.1 17.1-12 21.2 0 0 0 0 0 0-15.2 10.6-32.7 15.7-51.6 15.7-18.9 0-35.6-5.1-49.9-14.8 0 0 0 0 0 0-28.1-18-42.4-49.8-42.4-95.9 0 0 0 0 0 0 0-39.2 12-68.7 36-88.6 0 0 0 0 0 0 15.2-13.4 34.1-20.3 56.3-20.3zm184.5 2.8c8.3-2.3 15.7 1.4 21.2 12 0 0 72 122.2 72 122.2 7.8 12.5 10.6 28.2 7.8 47.5-2.3 17.6-8.8 28.6-19.4 33.3-10.1 4.6-19.3 0-27.2-13.4 0 0-51.6-90.9-51.6-90.9 0 0-51.7 90.9-51.7 90.9-6.9 13.4-16.2 18-27.2 13.4-10.2-4.7-16.6-15.7-19.4-33.3-2.3-19.3 0-35 7.8-47.5 0 0 71.1-122.2 71.1-122.2 4.6-7.9 10.1-12 16.6-12zm231.1-2.8c0 0 0 0 0 0 33.7 0 59.5 15.2 76.6 45.2 0 0 0 0 0 0 5 9.3 5 18 0 26.8 0 0 0 0 0 0-5.6 7.8-13.4 11.5-23.1 11.1 0 0 0 0 0 0-9.7-1.4-16.6-6.5-20.3-15.7 0 0 0 0 0 0-4.1-8.8-9.7-13.9-16.6-15.7 0 0 0 0 0 0-5.1-1.4-10.6-1.9-16.6-1.9 0 0 0 0 0 0-16.2 0-26.8 4.2-32.3 13 0 0 0 0 0 0-0.5 1.3-1.4 2.7-2.8 4.6 0 0 0 0 0 0-3.2 6.9-5 13.8-5.5 21.2 0 0 0 0 0 0 0 0 0 106.1 0 106.1 0 9.2-3.7 16.1-11.1 21.2 0 0 0 0 0 0-8.7 5.1-17 5.1-24.9 0-7.8-5.1-12-12-12-21.2 0 0 0 0 0 0 0 0 0-106.1 0-106.1 3.3-42.4 21.7-69.7 56.3-82.1 0 0 0 0 0 0 9.7-4.2 20.8-6.5 32.3-6.5zm205.7 0c0 0 0 0 0 0 33.7 0 59.5 15.2 76.6 45.2 0 0 0 0 0 0 5.1 9.3 5.1 18 0 26.8 0 0 0 0 0 0-5.5 7.8-13.4 11.5-23.1 11.1 0 0 0 0 0 0-9.6-1.4-16.6-6.5-20.3-15.7 0 0 0 0 0 0-4.1-8.8-9.6-13.9-16.6-15.7 0 0 0 0 0 0-5-1.4-10.6-1.9-16.6-1.9 0 0 0 0 0 0-16.1 0-26.7 4.2-32.3 13 0 0 0 0 0 0-0.4 1.3-1.3 2.7-2.7 4.6 0 0 0 0 0 0-3.3 6.9-5.1 13.8-5.6 21.2 0 0 0 0 0 0 0 0 0 106.1 0 106.1 0 9.2-3.7 16.1-11 21.2 0 0 0 0 0 0-8.8 5.1-17.1 5.1-24.9 0-7.9-5.1-12-12-12-21.2 0 0 0 0 0 0 0 0 0-106.1 0-106.1 3.2-42.4 21.6-69.7 56.2-82.1 0 0 0 0 0 0 9.7-4.2 20.8-6.5 32.3-6.5zm206.7 0.9c0 0 0 0 0 0-18.5 0-35.1 5.1-49.8 15.7 0 0 0 0 0 0-27.7 18.5-41.5 49.4-41.5 93.2 0 0 0 0 0 0-0.5 41.1 10.6 71.5 34.1 91.3 0 0 0 0 0 0 16.6 12.5 35.5 18.5 57.2 18.5 0 0 0 0 0 0 18.9 0 36.4-5.1 51.7-14.8 0 0 0 0 0 0 27.6-18.4 41.5-50.2 41.5-95 0 0 0 0 0 0 0-42-13.9-73.3-41.5-94.1 0 0 0 0 0 0-14.8-9.7-31.9-14.8-51.7-14.8zm-43.4 112.6c0 0 0 0 0 0 0 0 0-3.7 0-3.7 0-26.3 6.9-43.8 20.3-52.6 0 0 0 0 0 0 7.4-5 15.2-7.4 23.1-7.4 0 0 0 0 0 0 30 0 45.2 19.9 45.2 60 0 0 0 0 0 0 0 41.1-15.2 61.8-45.2 61.8 0 0 0 0 0 0-29.1 0-43.4-19.3-43.4-58.1zm223.3-200.2c0 0 0 0 0 0 7.4 0 13.4 2.3 18.4 7.4 5.1 5.1 7 10.6 6.5 17.5 0 0 0 0 0 0 0 0 0 63.7 0 63.7 0 0 30.4 0 30.4 0 9.7 0 17.1 4.1 22.2 12.9 0 0 0 0 0 0 5.1 7.4 5.1 15.2 0 24-5.1 8.7-12.5 12.4-22.2 12 0 0 0 0 0 0 0 0-30.4 0-30.4 0 0 0 0 95.9 0 95.9 0 9.2 1.4 15.2 4.6 18.5 0 0 0 0 0 0 1.9 2.3 5.1 4.1 9.2 4.6 0 0 0 0 0 0 5.1 1.8 11.1 1.4 18.5-0.9 0 0 0 0 0 0 9.7-3.3 18.4-1 25.8 6.4 0 0 0 0 0 0 6 6 7.9 14.3 5.6 24 0 0 0 0 0 0-2.3 9.2-8.3 15.2-17.6 17.5 0 0 0 0 0 0 0 0-17.5 2.8-17.5 2.8-27.2 1.8-47.5-5.5-60.9-22.1 0 0 0 0 0 0-11.1-13-16.6-30-16.6-50.8 0 0 0 0 0 0 0 0 0-95.9 0-95.9 0 0-14.8 0-14.8 0-9.6 0.4-17-3.3-21.2-12 0 0 0 0 0 0-5-8.8-5-16.6 0-24 0 0 0 0 0 0 4.2-8.8 11.6-12.9 21.2-12.9 0 0 0 0 0 0 0 0 14.8 0 14.8 0 0 0 0-63.7 0-63.7 0-9.7 4.2-17.5 12.9-23.1 0 0 0 0 0 0 3.7-1.3 7.4-1.8 11.1-1.8zm223.3 255.6c0 0 0 0 0 0 0 0-8.3 0-8.3 0-20.3-3.3-32.8-15.3-36.9-36 0 0 0 0 0 0 0 0 100.5 0 100.5 0 11.1 0 18.5-5.1 22.2-14.8 0 0 0 0 0 0 1.3-3.2 1.8-6 1.8-9.2 0 0 0 0 0 0 0 0 0-9.2 0-9.2 0-42.9-14.8-73.8-44.3-92.3 0 0 0 0 0 0-11.1-6-23.5-9.2-37.8-9.2 0 0 0 0 0 0-18.9 0-36 5.1-50.8 15.7 0 0 0 0 0 0-27.2 18-41.5 47.5-43.3 89.5 0 0 0 0 0 0-0.5 3.6-0.5 6.9 0 10.1 0 0 0 0 0 0 1.8 40.1 16.1 69.7 43.3 89.5 0 0 0 0 0 0 14.8 10.6 30 15.7 45.3 15.7 0 0 0 0 0 0 21.6 0.4 36.9 0 46.1-1.9 0 0 0 0 0 0 12.9-3.2 23.5-8.3 32.3-15.7 0 0 0 0 0 0 7.8-5.5 11-12.9 9.2-22.1 0 0 0 0 0 0-1.4-9.7-6-16.6-13.8-20.3 0 0 0 0 0 0-9.3-3.2-17.6-1.4-24.9 4.6 0 0 0 0 0 0-5.6 3.7-19 5.6-40.6 5.6zm-5.6-120.9c0 0 1.9 0 1.9 0 6 0 11.5 1.4 15.7 3.7 0 0 0 0 0 0 9.6 5.1 16.1 15.2 18.4 30.4 0 0 0 0 0 0 0 0 0 1.9 0 1.9 0 0-75.6 0-75.6 0 2.3-13.4 8.7-23.5 18.4-30.5 0 0 0 0 0 0 6.9-3.7 12.9-5.5 18.5-5.5 0 0 0 0 0 0 0 0 2.7 0 2.7 0zm299.4 71c0 0 0 0 0 0 0 0 0-178 0-178 0-7.4-2.3-13.4-7.4-17.6 0 0 0 0 0 0-4.1-5.5-10.1-8.3-17.5-8.3 0 0 0 0 0 0-10.6 0-18 5.1-22.1 14.8 0 0 0 0 0 0-1.4 3.2-1.9 6.9-1.9 11.1 0 0 0 0 0 0 0 0 0 70.1 0 70.1-13.4-6-26.7-9.2-39.7-9.2 0 0 0 0 0 0-18 1.4-32.7 6-44.3 13.8 0 0 0 0 0 0-29 18.9-43.3 50.8-43.3 95 0 0 0 0 0 0 0 38.8 12 68.8 36 89.5 0 0 0 0 0 0 0 0 7.3 4.6 7.3 4.6 13.4 9.3 27.3 14.3 41.6 14.8 0 0 0 0 0 0 0 0 0 0 0 0 0 0 0.9 0 0.9 0 0 0 1.8 0 1.8 0 0 0 0 0 0 0 14.8 1.4 29.6-1.8 44.3-9.2 0 0 0 0 0 0 20.8-11.1 34.6-30.9 40.6-59.1 0 0 0 0 0 0 2.3-9.7 3.7-20.7 3.7-32.3zm-48.9-29.5c0 0 0 0 0 0 0 0 0 29.5 0 29.5 0.5 26.3-5.5 42.5-18.4 48 0 0 0 0 0 0-5.6 3.7-11.6 5.1-17.6 4.6 0 0 0 0 0 0 0 0-3.7 0-3.7 0-6.9-1.8-12.9-4.1-18.4-7.4 0 0 0 0 0 0-12.9-12.4-19.9-29.9-20.3-53.5 0 0 0 0 0 0 0-27.2 6.9-45.2 20.3-54.4 0 0 0 0 0 0 7.4-4.1 13.4-6.5 18.4-6.5 0 0 0 0 0 0 8.8 1.4 15.7 3.3 21.3 5.6 0 0 0 0 0 0 8.7 5.1 14.3 10.6 16.6 16.6 0 0 0 0 0 0 1.3 5.1 1.8 10.6 1.8 17.5z"/></svg>